<svg xmlns="http://www.w3.org/2000/svg">
  <symbol id="abstract-figures" viewBox="0 0 544 272" fill="none">
    <path opacity="0.5" d="M1 271V2.41421L269.586 271H1Z" stroke="#C4C4C4" stroke-width="2"/>
    <rect opacity="0.5" x="137" y="1" width="270" height="270" rx="135" stroke="#C4C4C4" stroke-width="2"/>
    <rect opacity="0.5" x="273" y="1" width="270" height="270" stroke="#C4C4C4" stroke-width="2"/>
  </symbol>

  <symbol id="abstract-figures-2" viewBox="0 0 579 386" fill="none">
    <g opacity="0.1">
      <rect x="1" y="-1" width="384" height="384" transform="matrix(1 0 0 -1 193 384)" stroke="white" stroke-width="2"/>
      <circle cx="193" cy="193" r="192" stroke="white" stroke-width="2"/>
      <path d="M194 385H576.586L194 2.41418V385Z" stroke="white" stroke-width="2"/>
    </g>
  </symbol>

  <symbol id="arrow" viewBox="0 0 30 30" fill="none">
    <path d="M30 30L30 3.33333L25 3.33333L25 21.6667L3.33333 -1.16564e-06L-1.45705e-07 3.33333L21.6667 25L3.33333 25L3.33333 30L30 30Z" fill="#131315"/>
  </symbol>

  <symbol id="arrow-top" viewBox="0 0 12 12" fill="none">
    <path d="M12 0H1.33333V2H8.66667L0 10.6667L1.33333 12L10 3.33333V10.6667H12V0Z" fill="white"/>
  </symbol>

  <symbol id="lang" viewBox="0 0 16 16" fill="none">
    <path fill-rule="evenodd" clip-rule="evenodd" d="M8 14.5C11.5899 14.5 14.5 11.5899 14.5 8C14.5 4.41015 11.5899 1.5 8 1.5C4.41015 1.5 1.5 4.41015 1.5 8C1.5 11.5899 4.41015 14.5 8 14.5ZM8 16C12.4183 16 16 12.4183 16 8C16 3.58172 12.4183 0 8 0C3.58172 0 0 3.58172 0 8C0 12.4183 3.58172 16 8 16Z" fill="white"/>
    <path fill-rule="evenodd" clip-rule="evenodd" d="M15 5.75H1V4.25H15V5.75Z" fill="white"/>
    <path fill-rule="evenodd" clip-rule="evenodd" d="M15 10.75H1V9.25H15V10.75Z" fill="white"/>
    <path fill-rule="evenodd" clip-rule="evenodd" d="M4.25222 8.15586C4.19723 5.2047 5.17959 2.03355 7.57429 0.382531L8.42571 1.61747C6.61285 2.86735 5.70178 5.43493 5.75196 8.12792C5.80234 10.8315 6.81404 13.3088 8.41579 14.3758L7.58421 15.6242C5.39909 14.1686 4.30702 11.0965 4.25222 8.15586Z" fill="white"/>
    <path fill-rule="evenodd" clip-rule="evenodd" d="M11.7478 8.15586C11.8028 5.2047 10.8204 2.03355 8.42571 0.382531L7.57429 1.61747C9.38715 2.86735 10.2982 5.43493 10.248 8.12792C10.1977 10.8315 9.18596 13.3088 7.58421 14.3758L8.41579 15.6242C10.6009 14.1686 11.693 11.0965 11.7478 8.15586Z" fill="white"/>
  </symbol>
</svg>
