<svg xmlns="http://www.w3.org/2000/svg">
  <symbol id="vnukovo" viewBox="0 0 162 37" fill="none">
    <path d="M58.7864 8.293C59.814 8.293 61.9569 8.3516 63.2778 9.49635C63.9823 10.0837 64.6574 11.1696 64.6574 12.9602C64.6574 14.1052 64.364 15.3382 63.3364 16.4241C62.5439 17.246 61.4284 17.8625 60.2836 18.0974V18.1562C61.4284 18.2736 62.3091 18.8021 62.8668 19.3597C63.5421 20.064 63.8649 20.9153 63.8649 21.9429C63.8649 23.7629 62.955 25.847 60.9587 27.2266C58.7572 28.7238 56.2032 28.8412 54.7942 28.8412H48.0133L52.1817 8.293H58.7864ZM52.8276 25.6122H55.1465C55.763 25.6122 57.2308 25.5536 58.3167 24.6435C59.0212 24.0272 59.4617 23.0585 59.4617 22.0309C59.4617 21.2678 59.1681 20.6807 58.5518 20.2991C57.8765 19.9174 57.1132 19.8588 56.3207 19.8588H54.0017L52.8276 25.6122ZM54.6768 16.6295H56.7023C57.9645 16.6295 58.8746 16.2481 59.4911 15.6902C60.1662 15.1031 60.4596 14.3106 60.4596 13.5767C60.4596 12.5494 59.8725 12.1383 59.6085 11.9329C59.0506 11.6101 58.1407 11.5218 57.5536 11.5218H55.7042L54.6768 16.6295Z" fill="black"/>
    <path d="M72.1724 13.6354L71.0276 19.389H77.4271L78.5719 13.6354H82.564L79.4818 28.8411H75.4894L76.8104 22.3244H70.4111L69.0902 28.8411H65.098L68.1802 13.6354H72.1724Z" fill="black"/>
    <path d="M88.0837 13.6354L89.3165 22.207L89.5807 25.1132H89.6981L95.804 13.6354H100.031L90.1386 30.6904C89.4339 31.9233 88.4359 33.538 87.0267 34.4773C85.8817 35.1818 84.7078 35.358 83.3868 35.358C82.3007 35.358 81.4788 35.2404 80.5688 34.9176L81.4494 31.9527C81.8898 32.1582 82.3887 32.2756 82.9464 32.2756C83.6217 32.2756 84.2967 32.217 84.7958 31.8941C85.1481 31.6885 85.7352 31.0428 86.058 30.5732L86.5865 29.6924L83.8565 13.6354H88.0837Z" fill="black"/>
    <path d="M106.812 6.82462L104.141 19.9462H104.258L110.129 13.635H114.885L107.722 20.7388L112.037 28.8407H107.458L104.053 21.1204H103.906L102.321 28.8407H98.3286L102.82 6.82462H106.812Z" fill="black"/>
    <path d="M115.913 15.8074C118.115 13.6937 120.756 13.4002 122.547 13.4002C123.927 13.4002 125.864 13.6351 127.361 15.1906C128.125 15.954 129.034 17.451 129.034 19.8583C129.034 22.6469 128.007 24.8192 126.51 26.375C124.484 28.4591 122.048 29.0756 119.553 29.0756C118.144 29.0756 116.382 28.8996 114.885 27.5198C113.594 26.3162 113.036 24.7604 113.036 22.8817C113.036 20.0343 114.239 17.451 115.913 15.8074ZM118.555 18.3317C117.615 19.7115 117.205 21.3259 117.205 22.7643C117.205 23.146 117.234 24.4376 117.85 25.2009C118.202 25.6705 118.819 26.1988 119.993 26.1988C121.608 26.1988 123.222 25.2009 124.191 22.9697C124.69 21.825 124.866 20.6802 124.866 19.7115C124.866 18.8894 124.749 18.0089 124.191 17.275C123.662 16.5999 122.958 16.2768 122.107 16.2768C120.962 16.2768 119.7 16.6879 118.555 18.3317Z" fill="black"/>
    <path d="M140.072 13.6354C142.038 13.6354 142.861 14.0757 143.242 14.3397C144.299 15.0738 144.416 16.1305 144.416 16.6882C144.416 17.7155 144.064 18.6843 143.389 19.389C142.772 20.0053 141.686 20.5338 140.835 20.7686L140.806 20.8566C141.833 20.9446 142.714 21.4145 143.154 21.9722C143.506 22.4418 143.653 23.0875 143.653 23.704C143.653 25.1132 142.948 26.6688 141.569 27.6081C140.541 28.342 139.015 28.8411 137.019 28.8411H129.328L132.41 13.6354H140.072ZM133.849 26.1991H136.931C137.782 26.1991 138.34 25.9057 138.663 25.5829C139.103 25.2012 139.485 24.6433 139.485 23.7334C139.485 23.528 139.455 22.9701 138.986 22.5886C138.516 22.207 137.811 22.207 137.195 22.207H134.67L133.849 26.1991ZM135.199 19.565H137.665C138.34 19.565 138.898 19.565 139.455 19.1834C140.042 18.8019 140.306 18.156 140.306 17.5689C140.306 17.0111 140.042 16.7176 139.837 16.5708C139.485 16.3066 138.986 16.2771 138.545 16.2771H135.874L135.199 19.565Z" fill="black"/>
    <path d="M148.35 15.8074C150.552 13.6937 153.194 13.4002 154.984 13.4002C156.364 13.4002 158.301 13.6351 159.799 15.1906C160.562 15.954 161.472 17.451 161.472 19.8583C161.472 22.6469 160.444 24.8192 158.947 26.375C156.922 28.4591 154.485 29.0756 151.99 29.0756C150.581 29.0756 148.82 28.8996 147.323 27.5198C146.031 26.3162 145.474 24.7604 145.474 22.8817C145.474 20.0343 146.677 17.451 148.35 15.8074ZM150.992 18.3317C150.053 19.7115 149.642 21.3259 149.642 22.7643C149.642 23.146 149.671 24.4376 150.288 25.2009C150.64 25.6705 151.256 26.1988 152.43 26.1988C154.045 26.1988 155.66 25.2009 156.628 22.9697C157.127 21.825 157.303 20.6802 157.303 19.7115C157.303 18.8894 157.186 18.0089 156.628 17.275C156.1 16.5999 155.395 16.2768 154.544 16.2768C153.399 16.2768 152.137 16.6879 150.992 18.3317Z" fill="black"/>
    <path d="M92.1263 35.8748L91.2873 33.4063L91.1293 32.9127H91.1145L91.1243 33.446V35.8748H90.4235V32.4191H91.6081L92.2992 34.4284L92.4524 35.0406H92.467L92.6202 34.4284L93.3113 32.4191H94.4961V35.8748H93.7951V33.446L93.8051 32.9127H93.7901L93.6323 33.4063L92.7931 35.8748H92.1264" fill="black"/>
    <path d="M97.0731 32.4191V33.0313H95.7106V33.8112H96.9498V34.3789H95.7106V35.2624H97.0731V35.8748H95.0098V32.4191H97.0731Z" fill="black"/>
    <path d="M99.9068 32.4191V33.8951H99.9218L101.082 32.4191H101.916L100.573 33.984L101.936 35.8748H101.047L99.9218 34.1566H99.9068V35.8748H99.2059V34.1566H99.1911L98.0655 35.8748H97.177L98.5395 33.984L97.1966 32.4191H98.0311L99.1911 33.8951H99.2059V32.4191H99.9068Z" fill="black"/>
    <path d="M102.287 35.2624C102.637 34.6701 102.707 34.1566 102.707 33.5249V32.4191H104.958V35.2624H105.352V36.6005H104.661V35.8748H102.583V36.6005H101.892V35.2624H102.287ZM103.373 33.0313V33.5249C103.373 34.2061 103.334 34.7047 103.018 35.2624H104.256V33.0313H103.373Z" fill="black"/>
    <path d="M106.108 32.4191L106.794 33.8903L106.942 34.2556H106.957L107.105 33.8851L107.761 32.4191H108.453L107.07 35.3613C106.878 35.771 106.616 35.9142 106.251 35.9142C106.088 35.9142 105.91 35.8846 105.728 35.8057L105.807 35.2824C105.905 35.3317 105.989 35.3563 106.103 35.3563C106.236 35.3563 106.394 35.3515 106.493 35.1244L106.592 34.8924L105.323 32.4191H106.108" fill="black"/>
    <path d="M109.322 32.4191V33.8112H110.724V32.4191H111.425V35.8748H110.724V34.3789H109.322V35.8748H108.621V32.4191H109.322Z" fill="black"/>
    <path d="M113.844 32.4191L115.216 35.8748H114.427L114.135 35.0948H112.709L112.417 35.8748H111.667L113.044 32.4191H113.844ZM113.928 34.5269L113.419 33.1152H113.409L112.931 34.5269H113.928" fill="black"/>
    <path d="M116.481 32.4191C117.734 32.4191 117.808 33.283 117.808 33.5002C117.808 33.9544 117.492 34.5764 116.609 34.5764H116.16V35.8748H115.458V32.4191H116.481ZM116.481 34.0333C116.905 34.0333 117.068 33.7421 117.068 33.4804C117.068 33.194 116.885 32.9622 116.481 32.9622H116.16V34.0333H116.481Z" fill="black"/>
    <path d="M121.259 34.147C121.259 35.4008 120.42 35.9142 119.566 35.9142C118.712 35.9142 117.873 35.4008 117.873 34.147C117.873 32.8931 118.712 32.3796 119.566 32.3796C120.42 32.3796 121.259 32.8931 121.259 34.147ZM118.613 34.147C118.613 35.3169 119.304 35.4204 119.566 35.4204C119.827 35.4204 120.519 35.3169 120.519 34.147C120.519 32.9768 119.827 32.8732 119.566 32.8732C119.304 32.8732 118.613 32.9768 118.613 34.147Z" fill="black"/>
    <path d="M121.595 35.2624C121.945 34.6701 122.015 34.1566 122.015 33.5249V32.4191H124.266V35.2624H124.661V36.6005H123.969V35.8748H121.891V36.6005H121.2V35.2624H121.595ZM122.681 33.0313V33.5249C122.681 34.2061 122.642 34.7047 122.326 35.2624H123.565V33.0313H122.681Z" fill="black"/>
    <path d="M125.628 32.4191V33.8112H127.03V32.4191H127.731V35.8748H127.03V34.3789H125.628V35.8748H124.927V32.4191H125.628Z" fill="black"/>
    <path d="M128.946 33.7125H129.43C130.62 33.7125 130.703 34.5419 130.703 34.759C130.703 35.2923 130.402 35.8748 129.41 35.8748H128.245V32.4191H128.946V33.7125ZM128.946 35.3317H129.41C129.741 35.3317 129.988 35.1292 129.988 34.7936C129.988 34.5713 129.879 34.2556 129.356 34.2556H128.946V35.3317ZM131.898 32.4191V35.8748H131.197V32.4191H131.898Z" fill="black"/>
    <path d="M133.113 32.4199V34.1971L133.098 35.0363H133.113L133.36 34.5327L134.569 32.4199H135.408V35.8755H134.707V34.0933L134.722 33.2591H134.707L134.471 33.7824L133.251 35.8755H132.412V32.4199H133.113ZM134.787 31.6005C134.584 32.0991 134.164 32.178 133.873 32.178C133.582 32.178 133.162 32.0991 132.96 31.6005L133.32 31.4078C133.444 31.714 133.755 31.7288 133.873 31.7288C133.992 31.7288 134.303 31.714 134.426 31.4078L134.787 31.6005Z" fill="black"/>
    <path d="M138.8 32.4191L140.172 35.8748H139.382L139.091 35.0948H137.664L137.373 35.8748H136.623L138 32.4191H138.8ZM138.884 34.5269L138.375 33.1152H138.365L137.887 34.5269H138.884" fill="black"/>
    <path d="M140.597 33.8112H142.049C141.995 33.4756 141.767 32.9473 140.898 32.9473C140.652 32.9473 140.395 32.9918 140.153 33.0805L140.099 32.5278C140.365 32.4389 140.681 32.3796 141.052 32.3796C142.088 32.3796 142.789 33.0212 142.789 34.0925C142.789 35.1935 142.123 35.9142 140.948 35.9142C140.647 35.9142 140.345 35.8647 140.025 35.7512L140.109 35.1689C140.474 35.3267 140.79 35.3465 140.972 35.3465C141.684 35.3465 142.039 34.9119 142.049 34.3789H140.597V33.8112Z" fill="black"/>
    <path d="M144.201 32.4191C145.455 32.4191 145.529 33.283 145.529 33.5002C145.529 33.9544 145.213 34.5764 144.33 34.5764H143.88V35.8748H143.179V32.4191H144.201ZM144.201 34.0333C144.626 34.0333 144.789 33.7421 144.789 33.4804C144.789 33.194 144.606 32.9622 144.201 32.9622H143.88V34.0333H144.201Z" fill="black"/>
    <path d="M148.98 34.147C148.98 35.4008 148.141 35.9142 147.287 35.9142C146.433 35.9142 145.594 35.4008 145.594 34.147C145.594 32.8931 146.433 32.3796 147.287 32.3796C148.141 32.3796 148.98 32.8931 148.98 34.147ZM146.334 34.147C146.334 35.3169 147.025 35.4204 147.287 35.4204C147.548 35.4204 148.24 35.3169 148.24 34.147C148.24 32.9768 147.548 32.8732 147.287 32.8732C147.025 32.8732 146.334 32.9768 146.334 34.147Z" fill="black"/>
    <path d="M152.139 32.4191V35.8748H151.439V32.9868H150.071V35.8748H149.37V32.4191H152.139Z" fill="black"/>
    <path d="M155.916 34.147C155.916 35.4008 155.077 35.9142 154.223 35.9142C153.369 35.9142 152.53 35.4008 152.53 34.147C152.53 32.8931 153.369 32.3796 154.223 32.3796C155.077 32.3796 155.916 32.8931 155.916 34.147ZM153.27 34.147C153.27 35.3169 153.961 35.4204 154.223 35.4204C154.485 35.4204 155.176 35.3169 155.176 34.147C155.176 32.9768 154.485 32.8732 154.223 32.8732C153.961 32.8732 153.27 32.9768 153.27 34.147Z" fill="black"/>
    <path d="M157.328 32.4191C158.582 32.4191 158.656 33.283 158.656 33.5002C158.656 33.9544 158.34 34.5764 157.457 34.5764H157.007V35.8748H156.306V32.4191H157.328ZM157.328 34.0333C157.753 34.0333 157.916 33.7421 157.916 33.4804C157.916 33.194 157.733 32.9622 157.328 32.9622H157.007V34.0333H157.328Z" fill="black"/>
    <path d="M161.317 32.4191V33.0313H160.32V35.8748H159.619V33.0313H158.622V32.4191H161.317Z" fill="black"/>
    <path d="M25.5436 10.9007C26.0511 10.736 28.8875 10.1597 31.4855 10.5125C30.9184 11.194 30.3339 11.8325 29.7423 12.4235C28.2475 12.2188 26.2807 12.1389 24.3198 12.6169C23.9718 12.6464 23.7795 13.2168 24.3677 13.1068C24.7993 13.026 26.8255 12.871 28.9361 13.1959C28.29 13.7944 27.6445 14.342 27.0159 14.8367C25.8234 14.5364 24.4402 14.3276 23.0034 14.3969C22.6562 14.3601 22.3537 14.8832 22.9525 14.8867C23.3023 14.8888 24.6525 15.0361 26.2 15.4582C23.3252 17.5779 20.9981 18.5739 20.9981 18.5739C20.9981 18.5739 32.0032 28.7272 33.0257 29.7604C33.0802 29.8157 33.0473 29.856 33.0007 29.8538C32.7355 29.8403 32.078 29.781 31.7557 29.53C31.3766 29.2347 25.2784 23.9227 20.5814 21.7461C15.8845 19.5697 12.4754 19.828 10.4678 19.9754C8.46014 20.1231 5.12686 21.1193 4.52086 21.1928C4.05682 21.2492 3.48011 21.0766 3.23766 21.0117C3.19202 20.9995 3.18893 20.9519 3.25143 20.9323C3.95198 20.7105 7.37225 19.6667 11.1496 18.0573C15.392 16.2499 16.301 13.9994 16.339 13.4093C16.377 12.8192 15.9981 12.7086 15.8087 12.8927C15.6192 13.0773 15.089 13.2617 14.5209 13.4461C13.9527 13.6307 13.6874 13.7046 12.8163 14.4792C12.627 14.4423 12.0587 13.7413 12.0587 13.5939C12.551 12.5979 14.2178 10.2739 14.2178 10.2739C14.2178 10.2739 13.7632 9.31464 13.801 9.24071C13.8389 9.16701 14.2936 9.38855 15.0132 9.86797C16.0738 9.64664 17.9678 9.49922 19.2936 11.122C20.6193 12.7453 19.9754 14.9219 19.5965 15.7701C19.3817 16.2508 19.18 16.6187 19.4072 16.7293C22.1724 15.1433 21.4905 10.1632 21.4905 10.1632C23.3405 8.8764 27.4105 7.47956 33.6257 7.43374C33.6461 7.43356 33.6791 7.44703 33.6545 7.48752C33.2009 8.23298 32.7157 8.93682 32.2098 9.60259C30.6941 9.47067 27.9868 9.43526 25.43 10.4213C25.0891 10.4952 24.9755 11.0853 25.5436 10.9007ZM40 13.188V23.812C40 27.2387 37.1984 31.0961 32.6807 33.8788C27.9789 36.7747 21.8019 37 20.0194 37C18.2412 37 12.0707 36.7747 7.36886 33.8788C2.82759 31.0818 0 27.2243 0 23.812V13.188C0 9.77568 2.82609 5.91825 7.36718 3.12126C12.0691 0.225316 18.2412 0 20.0194 0C21.8019 0 27.9805 0.225316 32.6825 3.12126C37.2002 5.90387 40 9.76129 40 13.188ZM37.5 13.188C37.5 10.6276 35.0868 7.48398 31.3445 5.17901C27.1039 2.56704 21.1674 2.43468 20.0194 2.43468C18.8746 2.43468 12.9457 2.56704 8.70516 5.17901C4.93964 7.49815 2.5 10.642 2.5 13.188V23.812C2.5 26.358 4.93802 29.5019 8.70348 31.821C12.944 34.433 18.8746 34.5653 20.0194 34.5653C21.1674 34.5653 27.1055 34.433 31.3461 31.821C35.0884 29.5158 37.5 26.3722 37.5 23.812V13.188Z" fill="black"/>
  </symbol>

  <symbol id="tom-farr" viewBox="0 0 158 33" fill="none">
    <path fill-rule="evenodd" clip-rule="evenodd" d="M4.59913 10.2111L5.56076 4.81596L15.8043 1.65329L14.2364 10.2111H18.6056L17.414 16.5364H13.0448L11.895 22.8204C11.8114 23.1512 11.7905 23.4819 11.7905 23.8333C11.7905 25.0943 12.5222 25.7351 13.5465 25.7351C14.0901 25.7351 14.7381 25.611 15.8043 25.3216L14.6127 31.647C13.4002 32.1224 11.3097 32.7839 8.52929 32.7839C4.70365 32.7839 1.67241 31.2336 1.67241 27.2647C1.67241 26.2105 1.77694 25.2389 1.98599 24.1847L3.40754 16.5158H0V16.4951L1.19159 10.1904H4.59913V10.2111Z" fill="black"/>
    <path fill-rule="evenodd" clip-rule="evenodd" d="M41.0158 19.1003C41.0158 26.2112 35.5386 32.7846 26.3613 32.7846C16.7867 32.7846 15.5742 26.6866 15.5742 23.7306C15.5742 16.7852 20.5078 9.71567 30.3541 9.71567C38.2772 9.71567 41.0158 14.408 41.0158 19.1003ZM27.1348 17.798C26.5285 19.1417 25.8386 22.6351 25.8386 24.4128C25.8386 26.1078 26.633 26.4799 27.2602 26.4799C28.7444 26.4799 29.3925 25.0536 29.7479 23.958C30.2496 22.449 30.7932 20.0098 30.7932 18.1495C30.7932 17.5086 30.7095 16.041 29.288 16.041C28.0128 16.0203 27.3856 17.1986 27.1348 17.798Z" fill="black"/>
    <path fill-rule="evenodd" clip-rule="evenodd" d="M51.4269 14.0356H51.5732C53.2247 11.3691 55.8588 9.6947 59.3708 9.6947C60.8133 9.6947 63.5101 10.1081 64.7226 13.0641C66.9385 10.1908 69.698 9.6947 71.3077 9.6947C74.9452 9.6947 76.7012 11.3691 77.3283 13.1054C77.6001 13.7876 77.6628 14.5937 77.6628 15.2966C77.6628 16.5575 77.3702 17.7357 77.1402 19.038L74.6943 32.2675H65.0361L67.3775 19.5548C67.4611 19.1 67.5238 18.6659 67.5238 18.2112C67.5238 16.9089 66.7503 16.5782 66.1441 16.5782C64.6598 16.5782 64.179 18.2939 63.97 19.5755L61.6286 32.2675H51.9913L54.3118 19.5548C54.3954 19.1 54.479 18.6659 54.479 18.2112C54.479 17.6737 54.3536 16.5782 53.2247 16.5782C51.7405 16.5782 51.1969 18.0458 50.9252 19.5755L48.5838 32.2675H38.9465L43.0439 10.2115H52.1586L51.4269 14.0356Z" fill="black"/>
    <path fill-rule="evenodd" clip-rule="evenodd" d="M85.8784 16.5162H82.3663L83.5579 10.1908H87.07L87.4254 8.33043C87.8853 5.93259 89.3695 0 97.4598 0C100.491 0 102.352 0.537447 103.021 0.764828L101.913 6.6354C101.181 6.38735 100.449 6.34601 100.031 6.34601C98.3587 6.34601 97.1672 7.44157 96.8954 9.07459L96.7072 10.2115H100.805L99.6131 16.5368H95.5366L92.6098 32.2675H82.9726L85.8784 16.5162Z" fill="black"/>
    <path fill-rule="evenodd" clip-rule="evenodd" d="M109.543 29.5805H109.375C107.348 32.0611 104.944 32.7846 101.996 32.7846C100.888 32.7846 95.9126 32.7019 95.9126 27.3481C95.9126 25.3636 96.5188 22.9245 99.0902 20.94C101.766 18.8729 104.985 18.4595 110.191 18.4595H111.612L111.738 17.7774C111.78 17.612 111.78 17.488 111.78 17.3226C111.78 16.227 110.985 15.0901 107.724 15.0901C105.654 15.0901 102.477 15.855 100.261 16.8265L101.327 11.0593C106.156 9.71567 110.128 9.71567 110.985 9.71567C119.368 9.71567 120.664 13.8499 120.664 16.4131C120.664 16.9919 120.581 17.5913 120.476 18.2115L117.842 32.2678H109.041L109.543 29.5805ZM110.295 22.6764C109.062 22.6764 107.933 22.6351 106.846 23.2345C105.738 23.8547 105.362 24.8675 105.362 25.7151C105.362 26.8933 106.282 27.3481 107.243 27.3481C108.853 27.3481 110.107 26.3352 110.567 23.896L110.797 22.6764H110.295Z" fill="black"/>
    <path fill-rule="evenodd" clip-rule="evenodd" d="M131.744 10.2115L130.783 15.2139H130.929C132.162 12.5886 134.65 9.6947 138.016 9.6947C138.622 9.6947 139.165 9.81873 139.542 9.90141L137.89 18.7486C137.451 18.6246 136.72 18.4179 135.8 18.4179C132.58 18.4179 130.364 21.0224 129.758 24.2678L128.253 32.2675H118.595L122.713 10.2115H131.744Z" fill="black"/>
    <path fill-rule="evenodd" clip-rule="evenodd" d="M149.221 10.2115L148.259 15.2139H148.406C149.639 12.5886 152.127 9.6947 155.493 9.6947C156.099 9.6947 156.642 9.81873 157.019 9.90141L155.388 18.7486C154.928 18.6246 154.197 18.4179 153.277 18.4179C150.057 18.4179 147.841 21.0224 147.235 24.2678L145.751 32.2675H136.093L140.19 10.1908H149.221V10.2115Z" fill="black"/>
  </symbol>

  <symbol id="pavel-rakov" viewBox="0 0 118 65" fill="none">
    <path d="M44.4125 7.77638C43.5619 5.50471 41.9346 3.984 39.5491 3.30813C38.3101 2.95142 36.9972 2.91387 35.5363 3.19549C34.0754 3.4771 32.6515 4.02155 31.2831 4.79129C29.2304 5.97406 27.3073 7.43844 25.606 9.14689C23.8122 10.9304 22.111 13.0144 20.2617 15.6991C19.8364 16.3186 19.4296 16.9382 19.0043 17.5577C18.9303 17.6704 18.8563 17.783 18.7639 17.9144L19.5221 15.5677C19.7255 14.9293 19.7994 14.2535 19.7255 13.5588C19.67 12.958 19.3001 12.4511 18.7639 12.1883C18.2276 11.9255 17.5989 11.963 17.0811 12.2822L17.0071 12.3197C16.8592 12.4136 16.6928 12.5262 16.5633 12.6764C16.4708 12.7891 16.3599 12.9017 16.2674 12.9956C15.9346 13.3523 15.6017 13.709 15.3428 14.1408C14.8805 14.8918 14.4552 15.7178 14.0114 16.6753C13.1423 18.5903 12.3101 20.5053 11.4595 22.4014L10.2945 25.0486C9.94311 25.8559 9.57326 26.6632 9.22191 27.4705C9.16644 27.6019 9.12945 27.6207 9.12945 27.6394C9.12945 27.6394 9.11096 27.6582 9.09247 27.6582C8.92604 27.5643 8.7781 27.4517 8.64865 27.339C8.46373 27.1701 8.27881 26.9823 8.09389 26.7946C7.835 26.5318 7.57611 26.2877 7.29873 26.0436C6.94738 25.7432 6.50356 25.6681 6.05975 25.8559C5.57895 26.0624 5.28308 26.4567 5.20911 27.0011C5.15363 27.4705 5.2276 27.921 5.43102 28.3153C5.63443 28.6908 5.81935 29.0099 6.02277 29.3103C6.39261 29.8923 6.78095 30.4556 7.18777 31.0188C7.39119 31.3192 7.42817 31.6008 7.29873 31.9199L7.15079 32.2766C6.8919 32.915 6.6515 33.5345 6.37412 34.1728C4.91324 37.5146 3.63728 40.6499 2.47227 43.7477C1.47369 46.3948 0.734004 48.8918 0.197731 51.3324C0.0682856 51.9144 -0.0611596 52.7029 0.0313013 53.5102C0.0867778 53.9232 0.216223 54.355 0.419637 54.693C0.715512 55.2374 1.2148 55.5754 1.78806 55.6505C1.86203 55.6692 1.95449 55.6692 2.02846 55.6692C2.50925 55.6692 2.97156 55.4627 3.32291 55.106C3.67426 54.7493 3.95164 54.355 4.15506 53.9608L4.41395 53.4163C5.02419 52.2148 5.63443 50.9569 6.1707 49.6991C7.29873 46.9956 8.42675 44.2921 9.53628 41.5699C10.128 40.1055 10.7383 38.6599 11.33 37.1955C11.5334 36.6886 11.7923 36.1629 12.1067 35.5246C12.1252 35.487 12.1992 35.4307 12.2731 35.3744H12.2916L12.6984 35.5246C13.1423 35.6748 13.5861 35.825 14.0114 36.0127C15.2689 36.5196 16.6003 36.6886 17.8763 36.8575L18.4495 36.9326C19.2817 37.0453 20.1138 36.9139 20.909 36.7824C21.1124 36.7449 21.2973 36.7261 21.5007 36.6886C24.1821 36.3131 26.771 35.5058 29.1935 34.3043C31.8748 32.9525 34.4822 31.0751 37.3855 28.3716C37.6814 28.1088 37.8848 27.8835 38.0697 27.6582L38.1437 27.5643C39.4011 26.0249 40.7141 24.4291 41.8236 22.7018C43.4324 20.1673 44.505 17.4075 45.1152 14.2347C45.4666 12.1695 45.2632 10.0481 44.4125 7.77638ZM41.3058 16.2998C40.3997 18.365 39.2162 20.1485 37.8108 21.6505L37.5889 21.8758C36.7383 22.7769 35.8691 23.6969 34.9445 24.5417C31.579 27.6019 28.2319 29.6858 24.7184 30.8874C22.0555 31.8073 19.67 32.1828 17.3955 32.0326C16.2674 31.9575 15.2689 31.7134 14.0854 31.2253C14.0854 31.2065 14.1038 31.1877 14.1038 31.169C14.1778 30.9625 14.2518 30.7747 14.3258 30.6057L14.6771 29.8736C15.99 27.1889 17.34 24.4103 18.8933 21.8194C20.5206 19.0972 22.2959 16.2435 24.478 13.709C26.4196 11.4561 28.5462 9.10934 31.2276 7.47599C32.6145 6.63116 33.8165 6.03038 34.9815 5.63613C36.0171 5.27942 37.1636 5.20432 38.4765 5.39206C39.808 5.59858 40.8435 6.38709 41.6387 7.8327C41.99 8.47102 42.212 9.20321 42.2859 10.0105C42.4893 12.2634 42.1565 14.3661 41.3058 16.2998ZM81.8222 18.7593C81.101 20.6367 80.4353 22.1386 79.6956 23.4903C79.5661 23.7344 79.4367 23.9972 79.3073 24.2413L79.1223 24.598C78.9004 25.0298 78.66 25.4616 78.4381 25.8934C77.9203 26.8885 77.3841 27.921 76.8293 28.9161C75.9972 30.3805 75.2575 31.4506 74.4438 32.3705C74.3329 32.5019 74.2219 32.6334 74.1294 32.7648L73.9075 33.0464C73.0754 34.0602 72.0768 34.9426 70.8378 35.7499C70.1721 36.1629 69.4694 36.3882 68.7112 36.3882H68.6373C67.9161 36.3694 67.3243 36.069 66.8805 35.4495C66.5661 35.0177 66.3997 34.5671 66.3812 34.0977C66.3627 33.7598 66.3627 33.4219 66.3812 33.2341V33.1215C66.3442 32.4268 66.3812 31.8073 66.4737 31.2253C65.623 32.1452 64.8094 33.0276 64.0512 33.8349C63.4595 34.4732 62.8307 35.0928 62.1835 35.7123C61.2589 36.5947 60.1864 37.3269 59.0213 37.8713C57.9303 38.3782 56.8763 38.3032 55.8592 37.6648C54.9716 37.1016 54.6387 36.238 54.4353 35.5246C54.3798 35.3368 54.3613 35.1491 54.3243 34.9801C54.3058 34.9989 54.2873 34.9989 54.2689 35.0177L54.0839 35.1491C53.4922 35.5621 52.9004 35.9939 52.3087 36.4257C51.4395 37.0641 50.4964 37.4583 49.5718 37.8338C48.9061 38.0966 48.1849 38.2281 47.4637 38.2281H47.3898C46.4282 38.2093 45.559 37.9089 44.7639 37.3081C44.4495 37.0641 44.1906 36.8012 44.0057 36.4821C43.5064 35.656 43.192 34.9238 43.0441 34.1916C42.9332 33.6659 42.8407 33.1215 42.7667 32.5395C42.7112 32.0326 42.7852 31.5257 42.8592 31.0563L42.8962 30.831C43.229 28.4655 44.1906 26.2501 45.8179 24.0536C46.9644 22.5141 48.4438 21.3501 50.33 20.5428C51.7909 19.9045 53.2888 19.8482 54.8236 20.3926C55.3229 20.5616 55.7112 20.7869 56.0256 21.0873L56.2475 21.2938C56.5804 21.5942 56.9132 21.9133 57.1906 22.27C58.2262 23.5467 58.596 25.0298 58.3186 26.682C58.2632 27.0199 58.0967 27.3203 57.9673 27.5831C57.8563 27.7708 57.6899 27.8835 57.4125 27.9398C57.2646 27.9774 57.1166 27.921 56.9687 27.8272C56.8393 27.7333 56.6728 27.5268 56.6543 27.3015C56.6358 27.095 56.6174 26.926 56.6358 26.7758C56.6358 26.6444 56.6358 26.4942 56.6543 26.344C56.6543 26.1938 56.6728 26.0436 56.6728 25.8934C56.6728 24.7107 56.1551 23.7532 55.1195 23.0022C54.3243 22.4014 53.4922 22.2888 52.4936 22.608C51.4211 22.9647 50.4595 23.603 49.5533 24.5417C47.889 26.3065 46.8165 28.5406 46.2987 31.3943C46.1323 32.2579 46.1878 33.159 46.2802 33.9288C46.2802 34.0039 46.2987 34.0602 46.3172 34.1353C46.5946 35.3556 47.3713 35.8813 48.5733 35.656C49.1835 35.5433 49.7383 35.3744 50.2561 35.1115C51.4211 34.5671 52.623 33.8349 53.899 32.8774C54.6017 32.3517 55.027 31.9012 55.3229 31.3567C55.6373 30.7747 56.0626 30.3054 56.5989 29.9487C57.1536 29.5732 57.8378 29.667 58.3001 30.1739C58.633 30.5494 58.744 31 58.596 31.4506C58.4666 31.8636 58.3001 32.2954 58.1152 32.7836C57.8933 33.328 57.7084 33.9288 57.5605 34.6422C57.5235 34.8112 57.542 34.9801 57.6344 35.1491C57.7454 35.3932 57.8933 35.4683 58.1337 35.3932C58.9474 35.1866 59.7425 34.7548 60.6117 34.0602C62.202 32.8023 63.7183 31.3192 65.1423 29.6858C65.8819 28.8222 66.6771 28.0149 67.4538 27.2076L67.7681 26.8885C68.3044 25.5555 68.9516 24.2976 69.5989 23.1149C69.7838 22.7769 70.0242 22.4202 70.3385 22.026C70.505 21.8194 70.7269 21.6129 70.9858 21.4627C71.4296 21.1999 71.9289 21.1999 72.4097 21.4627C72.909 21.7631 73.1863 22.3451 73.0939 22.9083C72.9644 23.6218 72.7795 24.2413 72.5391 24.7858C71.9104 26.1938 71.3741 27.4705 70.8748 28.7096C70.3016 30.0988 69.7283 31.6008 69.3585 33.1778C69.303 33.4031 69.266 33.6472 69.229 33.8724C69.2105 33.9663 69.2475 34.0226 69.266 34.0414C69.2845 34.0602 69.3215 34.0602 69.377 34.0414L69.4509 34.0226C69.7653 33.91 70.0797 33.7974 70.3201 33.6284C71.3926 32.915 72.2063 32.2015 72.8535 31.413C73.9815 30.005 74.8506 28.8034 75.5903 27.5831C76.0896 26.7758 76.5334 25.9873 76.9587 25.2176C77.8649 23.5091 78.6785 21.9321 79.4367 20.4302C79.6771 19.9608 79.899 19.4727 80.1024 18.9845C80.2504 18.6654 80.3798 18.365 80.5277 18.0458C80.6202 17.8581 80.7312 17.7079 80.8421 17.5577L80.8976 17.4826C81.0085 17.3136 81.2304 17.2386 81.4524 17.2573C81.6743 17.2949 81.8592 17.4263 81.9332 17.614C82.0071 17.783 82.0811 18.0083 82.0811 18.2148C81.9701 18.3838 81.8962 18.5903 81.8222 18.7593ZM114.091 0.811169C114.073 0.510782 113.943 0.266718 113.721 0.116525C113.425 -0.0899906 112.926 -0.014894 112.686 0.285492C112.556 0.435686 112.408 0.623427 112.279 0.829943L111.964 1.35562C111.502 2.16291 111.04 2.95142 110.578 3.75871C109.967 4.86639 109.486 5.78632 109.061 6.64993C108.728 7.3258 108.414 8.02044 108.1 8.69631C107.952 9.03425 107.785 9.37218 107.637 9.71012C107.545 9.91663 107.452 10.1231 107.341 10.3297C107.156 10.6864 106.99 11.0619 106.824 11.4373L106.139 13.0144C105.326 14.873 104.494 16.8067 103.698 18.7217C102.718 21.0873 101.775 23.4903 100.943 25.6118C100.647 25.762 100.333 25.9122 100.037 26.1C98.2432 27.2452 96.468 28.3904 94.6927 29.5356C93.2319 30.4743 91.9744 31.1877 90.7354 31.7697C89.8293 32.2015 88.6088 32.7272 87.3144 33.0276C86.7041 33.159 86.0569 33.1966 85.3357 33.1027C85.1508 33.0839 84.9474 32.9901 84.7624 32.8962C84.6885 32.8586 84.559 32.7648 84.5406 32.5958C84.5221 32.2766 84.522 31.9575 84.522 31.6196C84.522 31.3004 84.6515 31.1314 84.9659 31C85.0583 30.9625 85.1693 30.9249 85.2617 30.8874C85.4467 30.831 85.6131 30.7559 85.798 30.6996L86.2048 30.5307C86.6856 30.3241 87.1664 30.1176 87.6287 29.8736C88.7568 29.254 89.8663 28.4467 90.9943 27.3766C91.5676 26.8321 92.0484 26.175 92.5477 25.4992C92.973 24.9172 93.1579 24.2413 93.3243 23.6593C93.6202 22.5704 92.973 21.3125 91.9004 20.8807C91.2162 20.5991 90.495 20.524 89.7738 20.6554C87.4808 21.0497 85.5761 22.2512 84.1152 24.2225C83.2831 25.3302 82.5989 26.5693 82.0071 28.0149C81.3969 29.4981 81.1565 30.8874 81.2674 32.2391C81.3969 33.7786 82.1551 34.8487 83.5235 35.4307C84.1707 35.7123 84.8364 35.7123 85.6686 35.7123H85.872C86.4082 35.7123 87.0555 35.5621 87.5363 35.4495C88.4424 35.2054 89.256 34.8487 90.0142 34.492C91.1053 33.9851 92.1593 33.3468 93.1764 32.7272L93.9346 32.2579C96.0612 30.9812 98.0028 29.7234 99.8336 28.4655L98.724 31.3379L95.8393 38.8852H99.6671L99.7596 38.6599C100.906 35.6935 101.979 32.7272 102.866 30.2303C103.477 28.5406 104.068 26.8321 104.679 25.1237L105.862 21.7443C106.158 20.8995 106.454 20.0547 106.768 19.2286C107.619 16.9945 108.469 14.7791 109.339 12.5638L109.764 11.4561C110.374 9.86031 111.021 8.22696 111.78 6.6687C112.242 5.74877 112.649 4.77251 113.055 3.85258L113.129 3.68361C113.37 3.12039 113.629 2.51962 113.888 1.8062C113.962 1.61846 113.999 1.41194 114.036 1.24297L114.073 1.03646L114.091 0.811169ZM87.6657 25.1425C88.4424 24.2038 89.5519 23.7156 90.458 23.3777L90.6245 23.3589C90.7539 23.3402 90.8464 23.3214 90.9203 23.3214C91.0128 23.3214 91.0683 23.3402 91.1053 23.3777C91.2162 23.5091 91.1792 23.6405 91.0128 24.0348C90.6799 24.7858 90.1807 25.4616 89.478 26.1187C88.2575 27.2639 86.9075 28.1651 85.4651 28.7847C85.9644 27.508 86.7041 26.2877 87.6657 25.1425ZM88.9047 58.8984H92.0669L91.845 59.4053C91.3087 60.6444 90.7539 61.8835 90.1991 63.1226C90.0327 63.4793 89.8108 63.8172 89.6074 64.1364L89.478 64.3429C89.3115 64.587 89.0711 64.7747 88.7383 64.9249C88.6273 64.9812 88.4979 65 88.3684 65C87.9801 65 87.6102 64.7747 87.4623 64.3992C87.3329 64.0801 87.2959 63.7609 87.3698 63.4417C87.4438 63.1038 87.5548 62.7095 87.7027 62.3153C88.091 61.2639 88.4609 60.1938 88.8492 59.1425L88.9047 58.8984ZM48.8137 47.3711C48.8137 44.799 46.0028 42.6963 42.5633 42.6963H37.8108C37.33 42.6963 36.9417 43.0155 36.9417 43.4097V54.4114C36.9417 54.8056 37.33 55.1248 37.8108 55.1248C38.2916 55.1248 38.68 54.8056 38.68 54.4114V52.0646H42.5818C43.229 52.0646 43.8762 51.9895 44.505 51.8393L47.2788 54.8432C47.4452 55.0121 47.7041 55.1248 47.9815 55.1248C48.1479 55.1248 48.2959 55.0872 48.4438 55.0121C48.6657 54.8995 48.8137 54.7305 48.8506 54.524C48.8876 54.3363 48.8321 54.1485 48.6842 53.9983L46.1508 51.2573C47.8151 50.3562 48.8137 48.9293 48.8137 47.3711ZM42.5633 50.6378H38.6615V44.1044H42.5633C45.0597 44.1044 47.0939 45.5687 47.0939 47.3711C47.0754 49.1734 45.0597 50.6378 42.5633 50.6378ZM61.3883 43.1469C61.2589 42.8653 60.9445 42.6963 60.5747 42.6963C60.2048 42.6963 59.8905 42.884 59.761 43.1469L54.6942 54.1485C54.6202 54.3175 54.6202 54.4865 54.6942 54.6554C54.7866 54.8619 54.99 55.0121 55.2489 55.0685C55.3414 55.0872 55.4154 55.106 55.5078 55.106C55.8592 55.106 56.192 54.937 56.3215 54.6554L57.5235 52.0646H63.6629L64.8649 54.6554C65.0313 54.9934 65.4936 55.1811 65.9374 55.0872C66.1963 55.0309 66.3997 54.862 66.4922 54.6742C66.5662 54.5052 66.5662 54.3363 66.4922 54.1673L61.3883 43.1469ZM58.1707 50.6378L60.5747 45.4186L62.9787 50.6378H58.1707ZM83.8563 53.9796C84.0043 54.1298 84.0597 54.3175 84.0228 54.5052C83.9858 54.7118 83.8378 54.8995 83.6159 55.0121C83.4865 55.0872 83.3201 55.1248 83.1536 55.1248C82.8763 55.1248 82.6174 55.0309 82.4509 54.8432L78.0683 50.0933L73.7041 54.8244C73.5007 55.0497 73.1124 55.1436 72.7795 55.0685C72.4097 54.9746 72.1508 54.7118 72.1508 54.3926V43.3909C72.1508 42.9967 72.5391 42.6775 73.0199 42.6775C73.5007 42.6775 73.8891 42.9967 73.8891 43.3909V52.2711L82.4879 42.9591C82.7468 42.6775 83.2646 42.6024 83.6344 42.7902C83.8563 42.9028 84.0043 43.0718 84.0413 43.2971C84.0782 43.4848 84.0228 43.6726 83.8748 43.8228L79.1963 48.8918L83.8563 53.9796ZM117.937 43.8228L111.706 54.524C111.558 54.7869 111.188 54.9558 110.781 54.9558C110.356 54.9558 110.004 54.7869 109.856 54.524L103.624 43.8228C103.532 43.6726 103.532 43.5036 103.587 43.3346C103.68 43.1093 103.939 42.9404 104.253 42.884C104.771 42.7902 105.289 42.9591 105.474 43.2783L110.762 52.3838L116.051 43.2783C116.236 42.9591 116.772 42.7902 117.272 42.884C117.605 42.9404 117.845 43.1093 117.937 43.3346C118.03 43.4848 118.011 43.6726 117.937 43.8228ZM94.6373 41.8327C90.7909 41.8327 87.6657 45.0055 87.6657 48.9105C87.6657 52.8156 90.7909 55.9884 94.6373 55.9884C98.4836 55.9884 101.609 52.8156 101.609 48.9105C101.609 45.0055 98.4651 41.8327 94.6373 41.8327ZM94.6373 54.2236C91.7525 54.2236 89.3855 51.8393 89.3855 48.8918C89.3855 45.9442 91.734 43.5599 94.6373 43.5599C97.5405 43.5599 99.889 45.9442 99.889 48.8918C99.889 51.8393 97.522 54.2236 94.6373 54.2236Z" fill="black"/>
  </symbol>

  <symbol id="alliance" viewBox="0 0 122 92"  fill="none">
    <path d="M7.77588 41.7368C7.77588 34.7498 16.8906 30.5285 21.2274 29.0728C4.15124 43.2926 43.4993 54.1825 114.284 33.003C46.5865 61.6062 7.77588 51.9711 7.77588 41.7368Z" fill="#010103"/>
    <path d="M105.223 16.7224C129.092 4.0143 102.377 -6.72189 64.9304 6.20535C107.194 0.0703931 110.698 12.1212 105.223 16.7224Z" fill="#010103"/>
    <path d="M27.8775 26.1512L49.0766 26.1661C51.1931 26.1661 52.9088 24.4494 52.9088 22.3318C52.9088 20.2141 51.1931 18.4974 49.0766 18.4974H29.0753L30.3867 10.3905H49.6241C55.913 10.3905 61.0112 15.6022 61.0112 21.8946C61.0112 28.0661 56.0111 33.1775 49.8431 33.1775H54.9892L62.2268 40.8758C58.3829 41.3597 54.76 41.7095 51.3691 41.9349L43.7116 34.273H35.6092L34.2713 41.9031C30.8656 41.5907 28.2298 40.5146 25.8357 39.8155L27.8775 26.1512Z" fill="#010103"/>
    <path d="M95.1974 34.5475L95.2062 34.4921H77.6539C73.3001 34.4921 69.7705 30.9606 69.7705 26.6043C69.7705 22.248 73.3001 18.7165 77.6539 18.7165H97.7153L99.1093 10.3905H77.4349C68.7272 10.3905 61.6682 17.4535 61.6682 26.1661V27.4808C61.6682 32.629 64.1328 37.2012 67.946 40.0806C76.1721 38.8323 85.2863 37.0141 95.1974 34.5475Z" fill="#010103"/>
    <path d="M9.17246 78.6294V78.377C8.74833 77.8565 8.66979 77.2729 8.60695 76.0742C8.54412 74.765 7.90007 73.9449 6.89473 73.6136C8.21424 73.1247 9.0625 72.0206 9.0625 70.6957C9.0625 68.9291 7.71157 67.5885 5.44954 67.5885H0.0615234V78.6294H2.18217V74.2445H4.53845C5.68517 74.2445 6.32922 74.7808 6.32922 76.1057C6.32922 76.8155 6.36064 77.336 6.40776 77.683C6.45489 78.03 6.54914 78.3455 6.69052 78.6294H9.17246ZM2.18217 72.273V69.56H5.32388C6.37635 69.56 6.94185 70.0648 6.94185 70.9007C6.94185 71.7367 6.37635 72.273 5.32388 72.273H2.18217Z" fill="#010103"/>
    <path d="M21.0081 76.3739C20.8196 76.7997 20.5368 76.989 20.097 76.989C19.7828 76.989 19.5629 76.9101 19.2644 76.6578C20.1441 75.4748 20.5997 73.9133 20.6625 72.0995L18.7618 71.9417C18.7146 73.2824 18.4319 74.3707 17.9292 75.2067L15.7929 72.8092C17.3637 72.2256 18.1491 71.2793 18.1491 69.9701C18.1491 68.4717 17.0338 67.4307 15.1645 67.4307C13.3423 67.4307 12.1328 68.5033 12.1328 70.1594C12.1328 70.8534 12.3527 71.4212 12.8082 72.0679C11.4259 72.683 10.5776 73.7398 10.5776 75.3329C10.5776 77.3675 12.1328 78.7871 14.599 78.7871C15.8714 78.7871 16.971 78.5032 17.8821 77.9354C18.5576 78.5663 19.1388 78.7871 20.0027 78.7871C21.0866 78.7871 21.9035 78.3455 22.3433 77.541L21.0081 76.3739ZM13.955 70.1436C13.955 69.4654 14.4891 69.0395 15.1331 69.0395C15.8243 69.0395 16.217 69.497 16.217 70.0648C16.217 70.7115 15.7772 71.1846 14.6304 71.5001C14.1749 70.9954 13.955 70.6326 13.955 70.1436ZM14.8189 76.8944C13.4366 76.8944 12.604 76.2319 12.604 75.2225C12.604 74.418 12.981 73.8502 13.9393 73.4086L16.594 76.5C16.0756 76.7682 15.4787 76.8944 14.8189 76.8944Z" fill="#010103"/>
    <path d="M38.7596 78.6294H41.1158L42.0584 76.1373H47.305L48.2632 78.6294H50.6038L46.1897 67.5885H43.1894L38.7596 78.6294ZM42.7967 74.213L44.6817 69.2761L46.5824 74.213H42.7967Z" fill="#010103"/>
    <path d="M51.8505 67.5885V78.6294H60.3645V76.6578H53.9712V67.5885H51.8505Z" fill="#010103"/>
    <path d="M62.0365 67.5885V78.6294H70.5505V76.6578H64.1572V67.5885H62.0365Z" fill="#010103"/>
    <path d="M72.2225 78.6294H74.3432V67.5885H72.2225V78.6294Z" fill="#010103"/>
    <path d="M75.5917 78.6294H77.948L78.8905 76.1373H84.1372L85.0954 78.6294H87.436L83.0219 67.5885H80.0215L75.5917 78.6294ZM79.6288 74.213L81.5138 69.2761L83.4146 74.213H79.6288Z" fill="#010103"/>
    <path d="M90.8033 69.0553L95.3745 78.6294H99.0346V67.5885H96.914V77.1625L92.3428 67.5885H88.6827V78.6294H90.8033V69.0553Z" fill="#010103"/>
    <path d="M113.58 67.5885V78.6294H122V76.6578H115.701V73.9291H121.371V71.9575H115.701V69.56H121.843V67.5885H113.58Z" fill="#010103"/>
    <path d="M25.2756 73.1083C25.2758 70.8216 26.8152 69.355 28.7628 69.355C30.4594 69.355 31.6061 70.396 31.9203 71.989L33.8681 71.1215C33.3654 69.0869 31.6532 67.4307 28.7786 67.4307C25.5898 67.3676 23.0608 69.9384 23.1078 73.1086C23.0608 76.2788 25.5898 78.8496 28.7786 78.7865C31.6532 78.7865 33.3654 77.1304 33.8681 75.0957L31.9203 74.2282C31.6061 75.8212 30.4594 76.8622 28.7628 76.8622C26.8152 76.8622 25.2758 75.3956 25.2756 73.1089" fill="#010103"/>
    <path d="M102.905 73.1083C102.905 70.8216 104.444 69.355 106.392 69.355C108.089 69.355 109.235 70.396 109.549 71.989L111.497 71.1215C110.995 69.0869 109.282 67.4307 106.408 67.4307C103.219 67.3676 100.69 69.9384 100.737 73.1086C100.69 76.2788 103.219 78.8496 106.408 78.7865C109.282 78.7865 110.995 77.1304 111.497 75.0957L109.549 74.2282C109.235 75.8212 108.089 76.8622 106.392 76.8622C104.444 76.8622 102.905 75.3956 102.905 73.1089" fill="#010103"/>
    <path d="M0.0610352 83.1932V91.5255H5.69269V90.7637H0.878911V87.5974H5.22534V86.8356H0.878911V83.955H5.57585V83.1932H0.0610352Z" fill="#010103"/>
    <path d="M11.4186 83.1932V91.5255H17.3541V90.7637H12.2365V83.1932H11.4186Z" fill="#010103"/>
    <path d="M22.8219 83.1932V91.5255H28.4536V90.7637H23.6398V87.5974H27.9862V86.8356H23.6398V83.955H28.3367V83.1932H22.8219Z" fill="#010103"/>
    <path d="M34.3393 87.3593C34.3393 85.2048 35.7064 83.8359 37.494 83.8359C38.9779 83.8359 39.971 84.7406 40.2981 86.169L41.0576 85.8238C40.8239 85.0144 40.415 84.3597 39.8308 83.8478C39.2583 83.336 38.4754 83.0741 37.5057 83.0741C35.2039 83.0265 33.4397 84.9668 33.4747 87.3593C33.4747 89.8114 35.0637 91.6445 37.5057 91.6445C38.5689 91.6445 39.4452 91.347 40.1229 90.7637C40.8006 90.1804 41.2562 89.4067 41.4782 88.4425L40.7889 88.1569C40.5669 89.002 40.2047 89.6686 39.7023 90.1566C39.1999 90.6447 38.4638 90.8827 37.494 90.8827C35.6479 90.8827 34.3393 89.5853 34.3393 87.3593Z" fill="#010103"/>
    <path d="M52.7854 83.1932H45.7984V83.955H48.8829V91.5255H49.7008V83.955H52.7854V83.1932Z" fill="#010103"/>
    <path d="M64.297 91.5255V91.3827C63.9698 91.0018 63.8997 90.5494 63.888 89.6329C63.8763 88.4425 63.444 87.8355 62.556 87.5379C63.666 87.1927 64.2152 86.4666 64.2152 85.4548C64.2152 84.2407 63.222 83.1932 61.633 83.1932H58.0928V91.5255H58.9107V87.9069H61.2474C62.4041 87.9069 62.9883 88.3711 63.0234 89.621C63.0584 90.6566 63.1169 91.1803 63.2921 91.5255H64.297ZM58.9107 87.1451V83.955H61.5512C62.6378 83.955 63.3389 84.5501 63.3389 85.55C63.3389 86.5499 62.6378 87.1451 61.5512 87.1451H58.9107Z" fill="#010103"/>
    <path d="M73.6584 83.0741C71.2866 83.0265 69.4522 85.0263 69.4873 87.3593C69.4522 89.7043 71.2866 91.6922 73.6584 91.6445C76.0303 91.6922 77.8646 89.7043 77.8296 87.3593C77.8646 85.0263 76.0303 83.0265 73.6584 83.0741ZM73.6584 90.8827C71.7773 90.8827 70.3519 89.49 70.3519 87.3712C70.3519 85.2524 71.7306 83.8359 73.6584 83.8359C75.5863 83.8359 76.965 85.2286 76.965 87.3593C76.965 89.49 75.5746 90.8827 73.6584 90.8827Z" fill="#010103"/>
    <path d="M84.2274 83.7288L89.0178 91.5255H90.4082V83.1932H89.5903V90.9899L84.7999 83.1932H83.4095V91.5255H84.2274V83.7288Z" fill="#010103"/>
    <path d="M96.3645 91.5255H97.1824V83.1932H96.3645V91.5255Z" fill="#010103"/>
    <path d="M103.637 87.3593C103.637 85.2048 105.004 83.8359 106.792 83.8359C108.276 83.8359 109.269 84.7406 109.596 86.169L110.356 85.8238C110.122 85.0144 109.713 84.3597 109.129 83.8478C108.556 83.336 107.774 83.0741 106.804 83.0741C104.502 83.0265 102.738 84.9668 102.773 87.3593C102.773 89.8114 104.362 91.6445 106.804 91.6445C107.867 91.6445 108.743 91.347 109.421 90.7637C110.099 90.1804 110.554 89.4067 110.776 88.4425L110.087 88.1569C109.865 89.002 109.503 89.6686 109 90.1566C108.498 90.6447 107.762 90.8827 106.792 90.8827C104.946 90.8827 103.637 89.5853 103.637 87.3593Z" fill="#010103"/>
    <path d="M118.798 83.8359C119.885 83.8359 120.621 84.3716 120.948 85.4191L121.672 85.0025C121.252 83.7645 120.2 83.0741 118.856 83.0741C117.267 83.0741 116.227 84.0264 116.227 85.2405C116.227 86.538 117.302 87.3593 118.973 87.645C120.621 87.9307 121.181 88.4068 121.181 89.2282C121.181 90.2638 120.34 90.8827 119.067 90.8827C117.665 90.8827 116.777 90.0495 116.391 88.6568L115.678 89.1091C116.227 90.8351 117.513 91.6445 119.055 91.6445C120.726 91.6445 121.999 90.6328 121.999 89.2163C121.999 87.9783 121.217 87.2998 119.254 86.9189C117.746 86.6332 117.045 86.1571 117.045 85.2167C117.045 84.3002 117.817 83.8359 118.798 83.8359Z" fill="#010103"/>
  </symbol>

  <symbol id="" fill="none">

  </symbol>

  <symbol id="" fill="none">

  </symbol>

  <symbol id="" fill="none">

  </symbol>

  <symbol id="" fill="none">

  </symbol>

  <symbol id="" fill="none">

  </symbol>

  <symbol id="" fill="none">

  </symbol>

  <symbol id="" fill="none">

  </symbol>

  <symbol id="" fill="none">

  </symbol>

  <symbol id="" fill="none">

  </symbol>

  <symbol id="" fill="none">

  </symbol>

  <symbol id="" fill="none">

  </symbol>

  <symbol id="" fill="none">

  </symbol>

  <symbol id="" fill="none">

  </symbol>

  <symbol id="" fill="none">

  </symbol>
</svg>
