<svg xmlns="http://www.w3.org/2000/svg">
  <symbol id="abstract-figures" viewBox="0 0 544 272" fill="none">
    <path opacity="0.5" d="M1 271V2.41421L269.586 271H1Z" stroke="#C4C4C4" stroke-width="2"/>
    <rect opacity="0.5" x="137" y="1" width="270" height="270" rx="135" stroke="#C4C4C4" stroke-width="2"/>
    <rect opacity="0.5" x="273" y="1" width="270" height="270" stroke="#C4C4C4" stroke-width="2"/>
  </symbol>

  <symbol id="abstract-figures-2" viewBox="0 0 579 386" fill="none">
    <g opacity="0.1">
      <rect x="1" y="-1" width="384" height="384" transform="matrix(1 0 0 -1 193 384)" stroke="white" stroke-width="2"/>
      <circle cx="193" cy="193" r="192" stroke="white" stroke-width="2"/>
      <path d="M194 385H576.586L194 2.41418V385Z" stroke="white" stroke-width="2"/>
    </g>
  </symbol>

  <symbol id="arrow" viewBox="0 0 30 30" fill="none">
    <path d="M30 30L30 3.33333L25 3.33333L25 21.6667L3.33333 -1.16564e-06L-1.45705e-07 3.33333L21.6667 25L3.33333 25L3.33333 30L30 30Z" fill="#131315"/>
  </symbol>

  <symbol id="arrow-top" viewBox="0 0 12 12" fill="none">
    <path d="M12 0H1.33333V2H8.66667L0 10.6667L1.33333 12L10 3.33333V10.6667H12V0Z" fill="white"/>
  </symbol>

  <symbol id="lang" viewBox="0 0 16 16" fill="none">
    <path fill-rule="evenodd" clip-rule="evenodd" d="M8 14.5C11.5899 14.5 14.5 11.5899 14.5 8C14.5 4.41015 11.5899 1.5 8 1.5C4.41015 1.5 1.5 4.41015 1.5 8C1.5 11.5899 4.41015 14.5 8 14.5ZM8 16C12.4183 16 16 12.4183 16 8C16 3.58172 12.4183 0 8 0C3.58172 0 0 3.58172 0 8C0 12.4183 3.58172 16 8 16Z" fill="white"/>
    <path fill-rule="evenodd" clip-rule="evenodd" d="M15 5.75H1V4.25H15V5.75Z" fill="white"/>
    <path fill-rule="evenodd" clip-rule="evenodd" d="M15 10.75H1V9.25H15V10.75Z" fill="white"/>
    <path fill-rule="evenodd" clip-rule="evenodd" d="M4.25222 8.15586C4.19723 5.2047 5.17959 2.03355 7.57429 0.382531L8.42571 1.61747C6.61285 2.86735 5.70178 5.43493 5.75196 8.12792C5.80234 10.8315 6.81404 13.3088 8.41579 14.3758L7.58421 15.6242C5.39909 14.1686 4.30702 11.0965 4.25222 8.15586Z" fill="white"/>
    <path fill-rule="evenodd" clip-rule="evenodd" d="M11.7478 8.15586C11.8028 5.2047 10.8204 2.03355 8.42571 0.382531L7.57429 1.61747C9.38715 2.86735 10.2982 5.43493 10.248 8.12792C10.1977 10.8315 9.18596 13.3088 7.58421 14.3758L8.41579 15.6242C10.6009 14.1686 11.693 11.0965 11.7478 8.15586Z" fill="white"/>
  </symbol>

  <symbol id="logo" viewBox="0 0 171 25" fill="none">
    <path d="M159.562 12.809C159.562 13.5551 159.68 14.2356 159.918 14.8506C160.166 15.4556 160.5 15.9748 160.921 16.4083C161.341 16.8419 161.821 17.1796 162.361 17.4216C162.911 17.6535 163.471 17.7694 164.043 17.7694C164.615 17.7694 165.17 17.6535 165.709 17.4216C166.249 17.1796 166.723 16.8419 167.133 16.4083C167.543 15.9748 167.872 15.4556 168.12 14.8506C168.379 14.2356 168.508 13.5551 168.508 12.809C168.508 12.063 168.379 11.3875 168.12 10.7825C167.872 10.1776 167.543 9.65838 167.133 9.22485C166.723 8.79132 166.249 8.45861 165.709 8.22672C165.17 7.98475 164.615 7.86377 164.043 7.86377C163.471 7.86377 162.911 7.98475 162.361 8.22672C161.821 8.45861 161.341 8.79132 160.921 9.22485C160.5 9.65838 160.166 10.1776 159.918 10.7825C159.68 11.3875 159.562 12.063 159.562 12.809ZM171 12.809C171 13.8576 170.816 14.8204 170.45 15.6975C170.083 16.5646 169.587 17.3157 168.961 17.9509C168.336 18.576 167.597 19.065 166.745 19.4178C165.893 19.7606 164.992 19.932 164.043 19.932C163.094 19.932 162.193 19.7606 161.341 19.4178C160.489 19.065 159.745 18.576 159.109 17.9509C158.483 17.3157 157.987 16.5646 157.62 15.6975C157.264 14.8305 157.086 13.8676 157.086 12.809C157.086 11.7605 157.264 10.8027 157.62 9.93563C157.987 9.06857 158.483 8.3225 159.109 7.69741C159.745 7.06224 160.489 6.56822 161.341 6.21534C162.193 5.86247 163.094 5.68604 164.043 5.68604C164.992 5.68604 165.893 5.86247 166.745 6.21534C167.597 6.56822 168.336 7.06224 168.961 7.69741C169.587 8.3225 170.083 9.06857 170.45 9.93563C170.816 10.8027 171 11.7605 171 12.809Z" fill="#98A5B1"/>
    <path d="M155.276 19.932H152.882V5.68606H155.276V19.932ZM152.571 1.66876C152.571 1.22582 152.711 0.865295 152.991 0.587174C153.281 0.298752 153.639 0.154541 154.063 0.154541C154.509 0.154541 154.872 0.298752 155.151 0.587174C155.441 0.865295 155.586 1.22582 155.586 1.66876C155.586 2.09109 155.441 2.44647 155.151 2.73489C154.872 3.02331 154.509 3.16752 154.063 3.16752C153.639 3.16752 153.281 3.02331 152.991 2.73489C152.711 2.44647 152.571 2.09109 152.571 1.66876Z" fill="#98A5B1"/>
    <path d="M148.896 12.809C148.896 12.0468 148.771 11.3566 148.523 10.7386C148.284 10.1205 147.963 9.59003 147.559 9.14709C147.155 8.70416 146.678 8.36424 146.129 8.12732C145.59 7.8801 145.026 7.75649 144.435 7.75649C143.845 7.75649 143.275 7.8801 142.726 8.12732C142.187 8.36424 141.715 8.70416 141.311 9.14709C140.907 9.59003 140.581 10.1205 140.332 10.7386C140.094 11.3566 139.975 12.0468 139.975 12.809C139.975 13.5713 140.094 14.2666 140.332 14.8949C140.581 15.513 140.907 16.0435 141.311 16.4864C141.715 16.9293 142.187 17.2744 142.726 17.5216C143.275 17.7585 143.845 17.877 144.435 17.877C145.026 17.877 145.59 17.7585 146.129 17.5216C146.678 17.2744 147.155 16.9293 147.559 16.4864C147.963 16.0435 148.284 15.513 148.523 14.8949C148.771 14.2666 148.896 13.5713 148.896 12.809ZM148.569 18.356C148.248 18.6959 147.891 18.9895 147.497 19.2367C147.134 19.4736 146.684 19.6745 146.145 19.8393C145.616 20.0041 144.995 20.0865 144.28 20.0865C143.368 20.0865 142.503 19.9114 141.684 19.5612C140.866 19.2007 140.151 18.7011 139.539 18.0624C138.938 17.4135 138.462 16.6461 138.11 15.7602C137.768 14.8743 137.597 13.8906 137.597 12.809C137.597 11.7377 137.768 10.7592 138.11 9.8733C138.462 8.98743 138.938 8.22517 139.539 7.58653C140.151 6.93758 140.866 6.43284 141.684 6.07231C142.503 5.71178 143.368 5.53152 144.28 5.53152C145.005 5.53152 145.632 5.63453 146.16 5.84054C146.689 6.03626 147.134 6.25258 147.497 6.48949C147.901 6.76761 148.258 7.08179 148.569 7.43201V0H150.963V19.932H149.207L148.569 18.356Z" fill="#98A5B1"/>
    <path d="M129.585 20.0865C128.819 20.0865 128.099 19.9372 127.425 19.6384C126.762 19.3294 126.171 18.9071 125.653 18.3714C125.146 17.8255 124.742 17.1766 124.441 16.4246C124.151 15.6623 124.006 14.828 124.006 13.9215V5.68604H126.399V13.9215C126.399 14.5087 126.487 15.0443 126.664 15.5284C126.85 16.0126 127.099 16.4298 127.41 16.78C127.731 17.1302 128.104 17.4032 128.529 17.5989C128.953 17.7843 129.409 17.877 129.896 17.877C131.026 17.877 131.943 17.5216 132.647 16.8109C133.362 16.0898 133.72 15.1267 133.72 13.9215V5.68604H136.098V19.932H134.357L133.72 18.356C133.419 18.6959 133.067 18.9895 132.663 19.2367C132.3 19.4736 131.865 19.6745 131.357 19.8393C130.86 20.0041 130.269 20.0865 129.585 20.0865Z" fill="#98A5B1"/>
    <path d="M117.199 1.90039H119.266V5.68593H122.452V7.9109H119.266V15.3429C119.266 16.1464 119.483 16.7696 119.918 17.2125C120.354 17.6554 120.934 17.8769 121.659 17.8769C121.866 17.8769 122.058 17.8563 122.234 17.8151C122.317 17.7945 122.39 17.7636 122.452 17.7224V19.7774C122.348 19.8392 122.234 19.8907 122.11 19.9319C121.83 20.0349 121.467 20.0864 121.022 20.0864C120.473 20.0864 119.95 19.9731 119.452 19.7465C118.955 19.5096 118.514 19.1851 118.131 18.7731C117.748 18.361 117.442 17.8666 117.214 17.2898C116.997 16.7129 116.888 16.064 116.888 15.3429V7.9109H114.339V5.68593H115.458C116.629 5.68593 117.209 5.10908 117.199 3.9554V1.90039Z" fill="#98A5B1"/>
    <path d="M32.1024 1.90039H34.1695V5.68593H37.3556V7.9109H34.1695V15.3429C34.1695 16.1464 34.3871 16.7696 34.8223 17.2125C35.2574 17.6554 35.8377 17.8769 36.563 17.8769C36.7702 17.8769 36.9619 17.8563 37.138 17.8151C37.2209 17.7945 37.2934 17.7636 37.3556 17.7224V19.7774C37.252 19.8392 37.138 19.8907 37.0137 19.9319C36.7339 20.0349 36.3713 20.0864 35.9257 20.0864C35.3766 20.0864 34.8533 19.9731 34.356 19.7465C33.8586 19.5096 33.4183 19.1851 33.0349 18.7731C32.6516 18.361 32.3459 17.8666 32.1179 17.2898C31.9004 16.7129 31.7916 16.064 31.7916 15.3429V7.9109H29.2427V5.68593H30.3617C31.5325 5.68593 32.1128 5.10908 32.1024 3.9554V1.90039Z" fill="#131315"/>
    <path d="M112.948 15.822C112.948 16.4091 112.829 16.9602 112.591 17.4753C112.363 17.9903 112.036 18.4435 111.611 18.835C111.187 19.2264 110.674 19.5354 110.073 19.762C109.472 19.9783 108.788 20.0865 108.021 20.0865C106.426 20.0865 105.172 19.6642 104.26 18.8195C103.348 17.9748 102.851 16.9242 102.768 15.6675H105.162C105.244 16.2958 105.519 16.8212 105.985 17.2435C106.452 17.6658 107.13 17.877 108.021 17.877C108.829 17.877 109.456 17.671 109.902 17.2589C110.347 16.8469 110.57 16.3679 110.57 15.822C110.57 15.2966 110.384 14.9001 110.011 14.6322C109.638 14.3644 109.177 14.1532 108.627 13.9987C108.078 13.8442 107.477 13.7 106.825 13.5661C106.182 13.4219 105.581 13.2159 105.022 12.9481C104.473 12.6699 104.011 12.2785 103.638 11.7738C103.265 11.2587 103.079 10.548 103.079 9.64151C103.079 9.09557 103.193 8.57538 103.421 8.08094C103.659 7.5865 103.986 7.14872 104.4 6.76759C104.814 6.38646 105.312 6.08774 105.892 5.87142C106.483 5.6448 107.141 5.53149 107.866 5.53149C109.389 5.53149 110.57 5.92807 111.409 6.72123C112.249 7.51439 112.71 8.54447 112.793 9.81147H110.399C110.316 9.18312 110.073 8.68353 109.669 8.31271C109.265 7.94188 108.664 7.75646 107.866 7.75646C107.141 7.75646 106.56 7.95218 106.125 8.34361C105.69 8.72474 105.472 9.15737 105.472 9.64151C105.472 10.1668 105.659 10.5634 106.032 10.8312C106.405 11.0991 106.866 11.3154 107.415 11.4802C107.964 11.6347 108.56 11.7789 109.202 11.9128C109.855 12.0467 110.456 12.2528 111.005 12.5309C111.565 12.7987 112.026 13.1953 112.389 13.7206C112.762 14.2357 112.948 14.9361 112.948 15.822Z" fill="#98A5B1"/>
    <path d="M97.2275 18.5104C97.2275 18.0263 97.3674 17.64 97.6472 17.3516C97.9373 17.0632 98.3258 16.9189 98.8128 16.9189C99.2998 16.9189 99.6832 17.0632 99.9629 17.3516C100.253 17.64 100.398 18.0263 100.398 18.5104C100.398 18.9946 100.253 19.3808 99.9629 19.6693C99.6832 19.9474 99.2998 20.0864 98.8128 20.0864C98.3258 20.0864 97.9373 19.9474 97.6472 19.6693C97.3674 19.3808 97.2275 18.9946 97.2275 18.5104Z" fill="#1B64FA"/>
    <path d="M89.2923 5.53149C90.059 5.53149 90.774 5.68601 91.4371 5.99503C92.1106 6.30405 92.7012 6.72638 93.2089 7.26203C93.7166 7.79767 94.1155 8.44662 94.4056 9.20887C94.7061 9.96083 94.8563 10.7952 94.8563 11.712V19.932H92.4784V11.712C92.4784 11.1248 92.38 10.5892 92.1831 10.105C91.9966 9.6106 91.7427 9.18827 91.4215 8.83805C91.1003 8.48782 90.7273 8.22 90.3025 8.03458C89.8881 7.84917 89.4425 7.75646 88.9659 7.75646C87.8365 7.75646 86.9195 8.11699 86.215 8.83805C85.5104 9.5488 85.1581 10.5068 85.1581 11.712V19.932H82.7646V5.68601H84.5209L85.1581 7.27748C85.4586 6.95815 85.8057 6.67488 86.1994 6.42766C86.5621 6.19074 86.9973 5.98473 87.505 5.80962C88.0127 5.6242 88.6084 5.53149 89.2923 5.53149Z" fill="#131315"/>
    <path d="M81.009 19.932H78.6155V5.68606H81.009V19.932ZM78.3047 1.66876C78.3047 1.22582 78.4446 0.865295 78.7243 0.587174C79.0144 0.298752 79.3719 0.154541 79.7967 0.154541C80.2423 0.154541 80.6049 0.298752 80.8847 0.587174C81.1748 0.865295 81.3198 1.22582 81.3198 1.66876C81.3198 2.09109 81.1748 2.44647 80.8847 2.73489C80.6049 3.02331 80.2423 3.16752 79.7967 3.16752C79.3719 3.16752 79.0144 3.02331 78.7243 2.73489C78.4446 2.44647 78.3047 2.09109 78.3047 1.66876Z" fill="#131315"/>
    <path d="M65.5065 12.809C65.5065 13.5713 65.6257 14.2666 65.864 14.8949C66.1127 15.513 66.4391 16.0434 66.8432 16.4864C67.2472 16.9293 67.7187 17.2744 68.2575 17.5216C68.8066 17.7585 69.3765 17.877 69.9671 17.877C70.5577 17.877 71.1224 17.7585 71.6612 17.5216C72.2103 17.2744 72.6869 16.9293 73.091 16.4864C73.4951 16.0434 73.8163 15.513 74.0546 14.8949C74.3033 14.2666 74.4276 13.5713 74.4276 12.809C74.4276 12.0467 74.3033 11.3566 74.0546 10.7385C73.8163 10.1205 73.4951 9.59 73.091 9.14707C72.6869 8.70414 72.2103 8.36421 71.6612 8.12729C71.1224 7.88007 70.5577 7.75646 69.9671 7.75646C69.3765 7.75646 68.8066 7.88007 68.2575 8.12729C67.7187 8.36421 67.2472 8.70414 66.8432 9.14707C66.4391 9.59 66.1127 10.1205 65.864 10.7385C65.6257 11.3566 65.5065 12.0467 65.5065 12.809ZM65.8329 7.27748C66.1334 6.95815 66.4909 6.67488 66.9053 6.42766C67.268 6.19074 67.7135 5.98473 68.2419 5.80962C68.7807 5.6242 69.4076 5.53149 70.1225 5.53149C71.0343 5.53149 71.8995 5.71176 72.718 6.07229C73.5366 6.43281 74.2463 6.93755 74.8473 7.5865C75.4586 8.22515 75.9352 8.98741 76.2771 9.87327C76.6294 10.7591 76.8056 11.7377 76.8056 12.809C76.8056 13.8803 76.6294 14.864 76.2771 15.7602C75.9352 16.646 75.4586 17.4134 74.8473 18.0624C74.2463 18.701 73.5366 19.2006 72.718 19.5612C71.8995 19.9114 71.0343 20.0865 70.1225 20.0865C69.3972 20.0865 68.7704 19.9886 68.2419 19.7929C67.7135 19.5869 67.268 19.3706 66.9053 19.144C66.4805 18.8659 66.123 18.5465 65.8329 18.186V25H63.4395V5.68601H65.1957L65.8329 7.27748Z" fill="#131315"/>
    <path d="M27.8526 7.91111H26.6163C25.4869 7.91111 24.5699 8.27164 23.8654 8.9927C23.1608 9.70345 22.8085 10.6614 22.8085 11.8666V19.9321H20.415V5.68614H22.1713L22.8085 7.27762C23.109 6.95829 23.4561 6.67502 23.8498 6.4278C24.2125 6.19088 24.6476 5.98487 25.1553 5.80975C26.0614 5.47886 26.9284 5.52921 27.8526 5.68614V7.91111Z" fill="#131315"/>
    <path d="M47.1197 7.91111H45.8834C44.754 7.91111 43.837 8.27164 43.1325 8.9927C42.4279 9.70345 42.0756 10.6614 42.0756 11.8666V19.9321H39.6821V5.68614H41.4384L42.0756 7.27762C42.3761 6.95829 42.7232 6.67502 43.1169 6.4278C43.4796 6.19088 43.9147 5.98487 44.4224 5.80975C45.3285 5.47886 46.1955 5.52921 47.1197 5.68614V7.91111Z" fill="#131315"/>
    <path d="M61.658 15.9009C61.4005 16.4153 61.0757 16.9244 60.6837 17.4283C60.2918 17.9217 59.8326 18.3521 59.3063 18.7195C58.78 19.0764 58.1808 19.3704 57.5089 19.6013C56.8482 19.8218 56.1091 19.932 55.2915 19.932C54.3061 19.932 53.371 19.7535 52.4863 19.3966C51.6016 19.0292 50.8288 18.5201 50.1681 17.8692C49.5186 17.2079 49.0035 16.4258 48.6227 15.523C48.2531 14.6202 48.0684 13.6177 48.0684 12.5154C48.0684 11.4237 48.2531 10.4264 48.6227 9.52362C49.0035 8.62083 49.513 7.844 50.1513 7.19315C50.8009 6.5318 51.5568 6.01742 52.4191 5.65C53.2814 5.28259 54.1829 5.09888 55.1236 5.09888C56.0643 5.09888 56.949 5.27209 57.7777 5.61851C58.6176 5.96493 59.3455 6.45832 59.9614 7.09867C60.5885 7.72853 61.0813 8.48961 61.4397 9.3819C61.8092 10.2742 61.994 11.2662 61.994 12.358C61.994 12.5679 61.9828 12.7516 61.9604 12.9091C61.938 13.0561 61.9156 13.182 61.8932 13.287C61.8708 13.413 61.8484 13.5337 61.826 13.6492H50.8232C50.868 14.1636 51.0192 14.6675 51.2768 15.1608C51.5456 15.6542 51.8759 16.0846 52.2679 16.452C52.671 16.8195 53.1358 17.1186 53.6621 17.3496C54.1997 17.57 54.7428 17.6803 55.2915 17.6803C55.7731 17.6803 56.1986 17.6173 56.5682 17.4913C56.949 17.3548 57.2961 17.2026 57.6097 17.0347C57.9232 16.8667 58.1808 16.683 58.3824 16.4835C58.5952 16.2736 58.7688 16.0794 58.9031 15.9009H61.658ZM55.1236 7.36636C54.5972 7.36636 54.0933 7.47134 53.6117 7.68129C53.1414 7.89124 52.7102 8.17993 52.3183 8.54734C51.9375 8.91476 51.6128 9.35566 51.344 9.87004C51.0864 10.3844 50.9128 10.946 50.8232 11.5549H59.2391C59.0599 10.2637 58.584 9.24543 57.8113 8.5001C57.0497 7.74428 56.1538 7.36636 55.1236 7.36636Z" fill="#131315"/>
    <path d="M13.9141 15.3149H4.98492L2.92046 19.9319H0L8.25785 1.14331H10.658L18.8991 19.9319H15.9786L13.9141 15.3149ZM5.84092 13.2176H13.0581L9.44953 5.01755L5.84092 13.2176Z" fill="#131315"/>
  </symbol>

  <symbol id="logo-white" viewBox="0 0 171 25"  fill="none">
    <path d="M159.562 12.809C159.562 13.5551 159.68 14.2356 159.918 14.8506C160.166 15.4556 160.5 15.9748 160.921 16.4083C161.341 16.8419 161.821 17.1796 162.361 17.4216C162.911 17.6535 163.471 17.7694 164.043 17.7694C164.615 17.7694 165.17 17.6535 165.709 17.4216C166.249 17.1796 166.723 16.8419 167.133 16.4083C167.543 15.9748 167.872 15.4556 168.12 14.8506C168.379 14.2356 168.508 13.5551 168.508 12.809C168.508 12.063 168.379 11.3875 168.12 10.7825C167.872 10.1776 167.543 9.65838 167.133 9.22485C166.723 8.79132 166.249 8.45861 165.709 8.22672C165.17 7.98475 164.615 7.86377 164.043 7.86377C163.471 7.86377 162.911 7.98475 162.361 8.22672C161.821 8.45861 161.341 8.79132 160.921 9.22485C160.5 9.65838 160.166 10.1776 159.918 10.7825C159.68 11.3875 159.562 12.063 159.562 12.809ZM171 12.809C171 13.8576 170.816 14.8204 170.45 15.6975C170.083 16.5646 169.587 17.3157 168.961 17.9509C168.336 18.576 167.597 19.065 166.745 19.4178C165.893 19.7606 164.992 19.932 164.043 19.932C163.094 19.932 162.193 19.7606 161.341 19.4178C160.489 19.065 159.745 18.576 159.109 17.9509C158.483 17.3157 157.987 16.5646 157.62 15.6975C157.264 14.8305 157.086 13.8676 157.086 12.809C157.086 11.7605 157.264 10.8027 157.62 9.93563C157.987 9.06857 158.483 8.3225 159.109 7.69741C159.745 7.06224 160.489 6.56822 161.341 6.21534C162.193 5.86247 163.094 5.68604 164.043 5.68604C164.992 5.68604 165.893 5.86247 166.745 6.21534C167.597 6.56822 168.336 7.06224 168.961 7.69741C169.587 8.3225 170.083 9.06857 170.45 9.93563C170.816 10.8027 171 11.7605 171 12.809Z" fill="#98A5B1"/>
    <path d="M155.276 19.932H152.882V5.68606H155.276V19.932ZM152.571 1.66876C152.571 1.22582 152.711 0.865295 152.991 0.587174C153.281 0.298752 153.639 0.154541 154.063 0.154541C154.509 0.154541 154.872 0.298752 155.151 0.587174C155.441 0.865295 155.586 1.22582 155.586 1.66876C155.586 2.09109 155.441 2.44647 155.151 2.73489C154.872 3.02331 154.509 3.16752 154.063 3.16752C153.639 3.16752 153.281 3.02331 152.991 2.73489C152.711 2.44647 152.571 2.09109 152.571 1.66876Z" fill="#98A5B1"/>
    <path d="M148.896 12.809C148.896 12.0468 148.771 11.3566 148.523 10.7386C148.284 10.1205 147.963 9.59003 147.559 9.14709C147.155 8.70416 146.678 8.36424 146.129 8.12732C145.59 7.8801 145.026 7.75649 144.435 7.75649C143.845 7.75649 143.275 7.8801 142.726 8.12732C142.187 8.36424 141.715 8.70416 141.311 9.14709C140.907 9.59003 140.581 10.1205 140.332 10.7386C140.094 11.3566 139.975 12.0468 139.975 12.809C139.975 13.5713 140.094 14.2666 140.332 14.8949C140.581 15.513 140.907 16.0435 141.311 16.4864C141.715 16.9293 142.187 17.2744 142.726 17.5216C143.275 17.7585 143.845 17.877 144.435 17.877C145.026 17.877 145.59 17.7585 146.129 17.5216C146.678 17.2744 147.155 16.9293 147.559 16.4864C147.963 16.0435 148.284 15.513 148.523 14.8949C148.771 14.2666 148.896 13.5713 148.896 12.809ZM148.569 18.356C148.248 18.6959 147.891 18.9895 147.497 19.2367C147.134 19.4736 146.684 19.6745 146.145 19.8393C145.616 20.0041 144.995 20.0865 144.28 20.0865C143.368 20.0865 142.503 19.9114 141.684 19.5612C140.866 19.2007 140.151 18.7011 139.539 18.0624C138.938 17.4135 138.462 16.6461 138.11 15.7602C137.768 14.8743 137.597 13.8906 137.597 12.809C137.597 11.7377 137.768 10.7592 138.11 9.8733C138.462 8.98743 138.938 8.22517 139.539 7.58653C140.151 6.93758 140.866 6.43284 141.684 6.07231C142.503 5.71178 143.368 5.53152 144.28 5.53152C145.005 5.53152 145.632 5.63453 146.16 5.84054C146.689 6.03626 147.134 6.25258 147.497 6.48949C147.901 6.76761 148.258 7.08179 148.569 7.43201V0H150.963V19.932H149.207L148.569 18.356Z" fill="#98A5B1"/>
    <path d="M129.585 20.0865C128.819 20.0865 128.099 19.9372 127.425 19.6384C126.762 19.3294 126.171 18.9071 125.653 18.3714C125.146 17.8255 124.742 17.1766 124.441 16.4246C124.151 15.6623 124.006 14.828 124.006 13.9215V5.68604H126.399V13.9215C126.399 14.5087 126.487 15.0443 126.664 15.5284C126.85 16.0126 127.099 16.4298 127.41 16.78C127.731 17.1302 128.104 17.4032 128.529 17.5989C128.953 17.7843 129.409 17.877 129.896 17.877C131.026 17.877 131.943 17.5216 132.647 16.8109C133.362 16.0898 133.72 15.1267 133.72 13.9215V5.68604H136.098V19.932H134.357L133.72 18.356C133.419 18.6959 133.067 18.9895 132.663 19.2367C132.3 19.4736 131.865 19.6745 131.357 19.8393C130.86 20.0041 130.269 20.0865 129.585 20.0865Z" fill="#98A5B1"/>
    <path d="M117.199 1.90039H119.266V5.68593H122.452V7.9109H119.266V15.3429C119.266 16.1464 119.483 16.7696 119.918 17.2125C120.354 17.6554 120.934 17.8769 121.659 17.8769C121.866 17.8769 122.058 17.8563 122.234 17.8151C122.317 17.7945 122.39 17.7636 122.452 17.7224V19.7774C122.348 19.8392 122.234 19.8907 122.11 19.9319C121.83 20.0349 121.467 20.0864 121.022 20.0864C120.473 20.0864 119.95 19.9731 119.452 19.7465C118.955 19.5096 118.514 19.1851 118.131 18.7731C117.748 18.361 117.442 17.8666 117.214 17.2898C116.997 16.7129 116.888 16.064 116.888 15.3429V7.9109H114.339V5.68593H115.458C116.629 5.68593 117.209 5.10908 117.199 3.9554V1.90039Z" fill="#98A5B1"/>
    <path d="M32.1024 1.90039H34.1695V5.68593H37.3556V7.9109H34.1695V15.3429C34.1695 16.1464 34.3871 16.7696 34.8223 17.2125C35.2574 17.6554 35.8377 17.8769 36.563 17.8769C36.7702 17.8769 36.9619 17.8563 37.138 17.8151C37.2209 17.7945 37.2934 17.7636 37.3556 17.7224V19.7774C37.252 19.8392 37.138 19.8907 37.0137 19.9319C36.7339 20.0349 36.3713 20.0864 35.9257 20.0864C35.3766 20.0864 34.8533 19.9731 34.356 19.7465C33.8586 19.5096 33.4183 19.1851 33.0349 18.7731C32.6516 18.361 32.3459 17.8666 32.1179 17.2898C31.9004 16.7129 31.7916 16.064 31.7916 15.3429V7.9109H29.2427V5.68593H30.3617C31.5325 5.68593 32.1128 5.10908 32.1024 3.9554V1.90039Z" fill="white"/>
    <path d="M112.948 15.822C112.948 16.4091 112.829 16.9602 112.591 17.4753C112.363 17.9903 112.036 18.4435 111.611 18.835C111.187 19.2264 110.674 19.5354 110.073 19.762C109.472 19.9783 108.788 20.0865 108.021 20.0865C106.426 20.0865 105.172 19.6642 104.26 18.8195C103.348 17.9748 102.851 16.9242 102.768 15.6675H105.162C105.244 16.2958 105.519 16.8212 105.985 17.2435C106.452 17.6658 107.13 17.877 108.021 17.877C108.829 17.877 109.456 17.671 109.902 17.2589C110.347 16.8469 110.57 16.3679 110.57 15.822C110.57 15.2966 110.384 14.9001 110.011 14.6322C109.638 14.3644 109.177 14.1532 108.627 13.9987C108.078 13.8442 107.477 13.7 106.825 13.5661C106.182 13.4219 105.581 13.2159 105.022 12.9481C104.473 12.6699 104.011 12.2785 103.638 11.7738C103.265 11.2587 103.079 10.548 103.079 9.64151C103.079 9.09557 103.193 8.57538 103.421 8.08094C103.659 7.5865 103.986 7.14872 104.4 6.76759C104.814 6.38646 105.312 6.08774 105.892 5.87142C106.483 5.6448 107.141 5.53149 107.866 5.53149C109.389 5.53149 110.57 5.92807 111.409 6.72123C112.249 7.51439 112.71 8.54447 112.793 9.81147H110.399C110.316 9.18312 110.073 8.68353 109.669 8.31271C109.265 7.94188 108.664 7.75646 107.866 7.75646C107.141 7.75646 106.56 7.95218 106.125 8.34361C105.69 8.72474 105.472 9.15737 105.472 9.64151C105.472 10.1668 105.659 10.5634 106.032 10.8312C106.405 11.0991 106.866 11.3154 107.415 11.4802C107.964 11.6347 108.56 11.7789 109.202 11.9128C109.855 12.0467 110.456 12.2528 111.005 12.5309C111.565 12.7987 112.026 13.1953 112.389 13.7206C112.762 14.2357 112.948 14.9361 112.948 15.822Z" fill="#98A5B1"/>
    <path d="M97.2275 18.5104C97.2275 18.0263 97.3674 17.64 97.6472 17.3516C97.9373 17.0632 98.3258 16.9189 98.8128 16.9189C99.2998 16.9189 99.6832 17.0632 99.9629 17.3516C100.253 17.64 100.398 18.0263 100.398 18.5104C100.398 18.9946 100.253 19.3808 99.9629 19.6693C99.6832 19.9474 99.2998 20.0864 98.8128 20.0864C98.3258 20.0864 97.9373 19.9474 97.6472 19.6693C97.3674 19.3808 97.2275 18.9946 97.2275 18.5104Z" fill="#1B64FA"/>
    <path d="M89.2923 5.53149C90.059 5.53149 90.774 5.68601 91.4371 5.99503C92.1106 6.30405 92.7012 6.72638 93.2089 7.26203C93.7166 7.79767 94.1155 8.44662 94.4056 9.20887C94.7061 9.96083 94.8563 10.7952 94.8563 11.712V19.932H92.4784V11.712C92.4784 11.1248 92.38 10.5892 92.1831 10.105C91.9966 9.6106 91.7427 9.18827 91.4215 8.83805C91.1003 8.48782 90.7273 8.22 90.3025 8.03458C89.8881 7.84917 89.4425 7.75646 88.9659 7.75646C87.8365 7.75646 86.9195 8.11699 86.215 8.83805C85.5104 9.5488 85.1581 10.5068 85.1581 11.712V19.932H82.7646V5.68601H84.5209L85.1581 7.27748C85.4586 6.95815 85.8057 6.67488 86.1994 6.42766C86.5621 6.19074 86.9973 5.98473 87.505 5.80962C88.0127 5.6242 88.6084 5.53149 89.2923 5.53149Z" fill="white"/>
    <path d="M81.009 19.932H78.6155V5.68606H81.009V19.932ZM78.3047 1.66876C78.3047 1.22582 78.4446 0.865295 78.7243 0.587174C79.0144 0.298752 79.3719 0.154541 79.7967 0.154541C80.2423 0.154541 80.6049 0.298752 80.8847 0.587174C81.1748 0.865295 81.3198 1.22582 81.3198 1.66876C81.3198 2.09109 81.1748 2.44647 80.8847 2.73489C80.6049 3.02331 80.2423 3.16752 79.7967 3.16752C79.3719 3.16752 79.0144 3.02331 78.7243 2.73489C78.4446 2.44647 78.3047 2.09109 78.3047 1.66876Z" fill="white"/>
    <path d="M65.5065 12.809C65.5065 13.5713 65.6257 14.2666 65.864 14.8949C66.1127 15.513 66.4391 16.0434 66.8432 16.4864C67.2472 16.9293 67.7187 17.2744 68.2575 17.5216C68.8066 17.7585 69.3765 17.877 69.9671 17.877C70.5577 17.877 71.1224 17.7585 71.6612 17.5216C72.2103 17.2744 72.6869 16.9293 73.091 16.4864C73.4951 16.0434 73.8163 15.513 74.0546 14.8949C74.3033 14.2666 74.4276 13.5713 74.4276 12.809C74.4276 12.0467 74.3033 11.3566 74.0546 10.7385C73.8163 10.1205 73.4951 9.59 73.091 9.14707C72.6869 8.70414 72.2103 8.36421 71.6612 8.12729C71.1224 7.88007 70.5577 7.75646 69.9671 7.75646C69.3765 7.75646 68.8066 7.88007 68.2575 8.12729C67.7187 8.36421 67.2472 8.70414 66.8432 9.14707C66.4391 9.59 66.1127 10.1205 65.864 10.7385C65.6257 11.3566 65.5065 12.0467 65.5065 12.809ZM65.8329 7.27748C66.1334 6.95815 66.4909 6.67488 66.9053 6.42766C67.268 6.19074 67.7135 5.98473 68.2419 5.80962C68.7807 5.6242 69.4076 5.53149 70.1225 5.53149C71.0343 5.53149 71.8995 5.71176 72.718 6.07229C73.5366 6.43281 74.2463 6.93755 74.8473 7.5865C75.4586 8.22515 75.9352 8.98741 76.2771 9.87327C76.6294 10.7591 76.8056 11.7377 76.8056 12.809C76.8056 13.8803 76.6294 14.864 76.2771 15.7602C75.9352 16.646 75.4586 17.4134 74.8473 18.0624C74.2463 18.701 73.5366 19.2006 72.718 19.5612C71.8995 19.9114 71.0343 20.0865 70.1225 20.0865C69.3972 20.0865 68.7704 19.9886 68.2419 19.7929C67.7135 19.5869 67.268 19.3706 66.9053 19.144C66.4805 18.8659 66.123 18.5465 65.8329 18.186V25H63.4395V5.68601H65.1957L65.8329 7.27748Z" fill="white"/>
    <path d="M27.8526 7.91111H26.6163C25.4869 7.91111 24.5699 8.27164 23.8654 8.9927C23.1608 9.70345 22.8085 10.6614 22.8085 11.8666V19.9321H20.415V5.68614H22.1713L22.8085 7.27762C23.109 6.95829 23.4561 6.67502 23.8498 6.4278C24.2125 6.19088 24.6476 5.98487 25.1553 5.80975C26.0614 5.47886 26.9284 5.52921 27.8526 5.68614V7.91111Z" fill="white"/>
    <path d="M47.1197 7.91111H45.8834C44.754 7.91111 43.837 8.27164 43.1325 8.9927C42.4279 9.70345 42.0756 10.6614 42.0756 11.8666V19.9321H39.6821V5.68614H41.4384L42.0756 7.27762C42.3761 6.95829 42.7232 6.67502 43.1169 6.4278C43.4796 6.19088 43.9147 5.98487 44.4224 5.80975C45.3285 5.47886 46.1955 5.52921 47.1197 5.68614V7.91111Z" fill="white"/>
    <path d="M61.658 15.9009C61.4005 16.4153 61.0757 16.9244 60.6837 17.4283C60.2918 17.9217 59.8326 18.3521 59.3063 18.7195C58.78 19.0764 58.1808 19.3704 57.5089 19.6013C56.8482 19.8218 56.1091 19.932 55.2915 19.932C54.3061 19.932 53.371 19.7535 52.4863 19.3966C51.6016 19.0292 50.8288 18.5201 50.1681 17.8692C49.5186 17.2079 49.0035 16.4258 48.6227 15.523C48.2531 14.6202 48.0684 13.6177 48.0684 12.5154C48.0684 11.4237 48.2531 10.4264 48.6227 9.52362C49.0035 8.62083 49.513 7.844 50.1513 7.19315C50.8009 6.5318 51.5568 6.01742 52.4191 5.65C53.2814 5.28259 54.1829 5.09888 55.1236 5.09888C56.0643 5.09888 56.949 5.27209 57.7777 5.61851C58.6176 5.96493 59.3455 6.45832 59.9614 7.09867C60.5885 7.72853 61.0813 8.48961 61.4397 9.3819C61.8092 10.2742 61.994 11.2662 61.994 12.358C61.994 12.5679 61.9828 12.7516 61.9604 12.9091C61.938 13.0561 61.9156 13.182 61.8932 13.287C61.8708 13.413 61.8484 13.5337 61.826 13.6492H50.8232C50.868 14.1636 51.0192 14.6675 51.2768 15.1608C51.5456 15.6542 51.8759 16.0846 52.2679 16.452C52.671 16.8195 53.1358 17.1186 53.6621 17.3496C54.1997 17.57 54.7428 17.6803 55.2915 17.6803C55.7731 17.6803 56.1986 17.6173 56.5682 17.4913C56.949 17.3548 57.2961 17.2026 57.6097 17.0347C57.9232 16.8667 58.1808 16.683 58.3824 16.4835C58.5952 16.2736 58.7688 16.0794 58.9031 15.9009H61.658ZM55.1236 7.36636C54.5972 7.36636 54.0933 7.47134 53.6117 7.68129C53.1414 7.89124 52.7102 8.17993 52.3183 8.54734C51.9375 8.91476 51.6128 9.35566 51.344 9.87004C51.0864 10.3844 50.9128 10.946 50.8232 11.5549H59.2391C59.0599 10.2637 58.584 9.24543 57.8113 8.5001C57.0497 7.74428 56.1538 7.36636 55.1236 7.36636Z" fill="white"/>
    <path d="M13.9141 15.3149H4.98492L2.92046 19.9319H0L8.25785 1.14331H10.658L18.8991 19.9319H15.9786L13.9141 15.3149ZM5.84092 13.2176H13.0581L9.44953 5.01755L5.84092 13.2176Z" fill="white"/>
  </symbol>

  <symbol id="burger" viewBox="0 0 22 22" fill="none">
    <path d="M7.77176 18.1176C7.77176 20.2618 6.03443 22 3.89133 22C1.74823 22 0.0109026 20.2618 0.0109027 18.1176C0.0109029 15.9735 1.74823 14.2353 3.89133 14.2353C6.03443 14.2353 7.77176 15.9735 7.77176 18.1176Z" fill="white"/>
    <path d="M22 18.1176C22 20.2618 20.2627 22 18.1196 22C15.9765 22 14.2391 20.2618 14.2391 18.1176C14.2391 15.9735 15.9765 14.2353 18.1196 14.2353C20.2627 14.2353 22 15.9735 22 18.1176Z" fill="white"/>
    <path d="M7.77176 3.88235C7.77176 6.02652 6.03443 7.7647 3.89133 7.7647C1.74823 7.7647 0.0109038 6.02651 0.010904 3.88235C0.0109042 1.73819 1.74823 -1.77047e-06 3.89133 -1.58311e-06C6.03443 -1.39575e-06 7.77176 1.73819 7.77176 3.88235Z" fill="white"/>
    <path d="M22 7.76471L14.2391 7.7647L14.2391 -6.78476e-07L22 0L22 7.76471Z" fill="white"/>
  </symbol>
</svg>
